<?xml version="1.0" encoding="utf-8"?>
<!-- Generator: Adobe Illustrator 16.0.0, SVG Export Plug-In . SVG Version: 6.00 Build 0)  -->
<!DOCTYPE svg PUBLIC "-//W3C//DTD SVG 1.1//EN" "http://www.w3.org/Graphics/SVG/1.1/DTD/svg11.dtd">
<svg version="1.1" id="Layer_1" xmlns="http://www.w3.org/2000/svg" xmlns:xlink="http://www.w3.org/1999/xlink" x="0px" y="0px"
	 width="153.8px" height="154.039px" viewBox="0 0 153.8 154.039" enable-background="new 0 0 153.8 154.039" xml:space="preserve">
<g>
	<polygon fill="#FFFFFF" points="4.896,149.471 76.896,5.471 148.896,149.471 	"/>
	<g>
		<path fill="#FFFFFF" d="M9.213,151.495C31.295,107.33,53.377,63.166,75.46,19.001c1.917-3.835,3.835-7.671,5.753-11.507
			c-2.878,0-5.757,0-8.635,0c22.082,44.165,44.164,88.33,66.247,132.494c1.917,3.836,3.835,7.672,5.753,11.507
			c1.439-2.508,2.878-5.016,4.317-7.523c-47.249,0-94.498,0-141.747,0c-0.751,0-1.502,0-2.253,0c-6.449,0-6.449,10,0,10
			c47.249,0,94.498,0,141.747,0c0.751,0,1.502,0,2.253,0c3.978,0,5.98-4.197,4.317-7.523
			c-22.082-44.165-44.164-88.329-66.247-132.494c-1.917-3.835-3.835-7.671-5.753-11.506c-1.632-3.263-7.003-3.263-8.635,0
			C50.497,46.612,28.415,90.776,6.332,134.941c-1.918,3.836-3.835,7.671-5.753,11.507C-2.296,152.198,6.329,157.263,9.213,151.495z"
			/>
	</g>
</g>
</svg>
