<?xml version="1.0" encoding="utf-8"?>
<!-- Generator: Adobe Illustrator 16.0.0, SVG Export Plug-In . SVG Version: 6.00 Build 0)  -->
<!DOCTYPE svg PUBLIC "-//W3C//DTD SVG 1.1//EN" "http://www.w3.org/Graphics/SVG/1.1/DTD/svg11.dtd">
<svg version="1.1" id="Layer_1" xmlns="http://www.w3.org/2000/svg" xmlns:xlink="http://www.w3.org/1999/xlink" x="0px" y="0px"
	 width="153.8px" height="154.039px" viewBox="0 0 153.8 154.039" enable-background="new 0 0 153.8 154.039" xml:space="preserve">
<g>
	<polygon fill="#FFFFFF" points="148.896,5.471 76.896,149.471 4.896,5.471 	"/>
	<g>
		<path fill="#FFFFFF" d="M144.579,2.448c-22.082,44.164-44.164,88.329-66.247,132.493c-1.917,3.836-3.835,7.671-5.753,11.507
			c2.878,0,5.757,0,8.635,0C59.131,102.283,37.049,58.119,14.966,13.954c-1.917-3.835-3.835-7.671-5.753-11.506
			C7.774,4.956,6.335,7.463,4.896,9.971c47.249,0,94.498,0,141.747,0c0.751,0,1.502,0,2.253,0c6.448,0,6.448-10,0-10
			c-47.249,0-94.498,0-141.747,0c-0.751,0-1.502,0-2.253,0c-3.978,0-5.98,4.198-4.317,7.523
			c22.082,44.165,44.164,88.329,66.247,132.493c1.917,3.836,3.835,7.672,5.753,11.507c1.632,3.264,7.003,3.264,8.635,0
			c22.082-44.164,44.164-88.329,66.247-132.493c1.917-3.835,3.835-7.671,5.753-11.507C156.088,1.745,147.463-3.321,144.579,2.448z"
			/>
	</g>
</g>
</svg>
