<?xml version="1.0" encoding="utf-8"?>
<!-- Generator: Adobe Illustrator 16.0.0, SVG Export Plug-In . SVG Version: 6.00 Build 0)  -->
<!DOCTYPE svg PUBLIC "-//W3C//DTD SVG 1.1//EN" "http://www.w3.org/Graphics/SVG/1.1/DTD/svg11.dtd">
<svg version="1.1" id="Layer_1" xmlns="http://www.w3.org/2000/svg" xmlns:xlink="http://www.w3.org/1999/xlink" x="0px" y="0px"
	 width="1527.619px" height="1524.492px" viewBox="-226.515 86.881 1527.619 1524.492"
	 enable-background="new -226.515 86.881 1527.619 1524.492" xml:space="preserve">
<path fill="#FFFFFF" d="M514.298,906.738c0,0,472.349,569.928,560.029,674.58c87.682,104.649,305.471-89.099,197.282-197.283
	c-113.846-98.287-674.58-560.029-674.58-560.029L514.298,906.738z"/>
<circle id="XMLID_1_" fill="none" stroke="#FFFFFF" stroke-width="90" stroke-miterlimit="10" cx="230.594" cy="543.99" r="412.109"/>
<line fill="none" stroke="#FFFFFF" stroke-width="120" stroke-miterlimit="10" x1="520.507" y1="831.638" x2="996.854" y2="1307.984"/>
<path fill="none" stroke="#FFFFFF" stroke-width="80" stroke-miterlimit="10" d="M503.977,900.421"/>
<path id="path-1" d="M1148.109,1396.141c-34.866,3.143-62.927,31.638-64.566,67.588c-1.79,39.236,28.565,72.493,67.801,74.283
	c38.474,1.756,71.202-27.398,74.143-65.526l0,0l-12.924-0.589c-2.608,30.989-29.29,54.629-60.63,53.199
	c-32.102-1.465-56.938-28.676-55.473-60.778c1.313-28.798,23.351-51.759,51.053-55.108l-0.553,12.109l23.489-18.344l-21.722-20.405
	L1148.109,1396.141z"/>
</svg>
